<?xml version="1.0" encoding="UTF-8" standalone="no"?>
<!-- Created with Inkscape (http://www.inkscape.org/) -->

<svg
   xmlns:dc="http://purl.org/dc/elements/1.1/"
   xmlns:cc="http://creativecommons.org/ns#"
   xmlns:rdf="http://www.w3.org/1999/02/22-rdf-syntax-ns#"
   xmlns:svg="http://www.w3.org/2000/svg"
   xmlns="http://www.w3.org/2000/svg"
   xmlns:sodipodi="http://sodipodi.sourceforge.net/DTD/sodipodi-0.dtd"
   xmlns:inkscape="http://www.inkscape.org/namespaces/inkscape"
   width="96.657982mm"
   height="97.035965mm"
   viewBox="0 0 96.657982 97.035965"
   version="1.1"
   id="svg8"
   inkscape:version="0.92.4 (5da689c313, 2019-01-14)"
   sodipodi:docname="logo.svg">
  <defs
     id="defs2">
    <clipPath
       clipPathUnits="userSpaceOnUse"
       id="clipPath905">
      <g
         inkscape:label="Clip"
         id="use907">
        <circle
           r="9.1200657"
           cy="82.397766"
           cx="-333.78067"
           id="circle958"
           style="fill:#00ffff;stroke-width:0.32324284" />
      </g>
    </clipPath>
    <clipPath
       clipPathUnits="userSpaceOnUse"
       id="clipPath1036">
      <path
         style="fill:none;stroke:#000000;stroke-width:0.26458332px;stroke-linecap:butt;stroke-linejoin:miter;stroke-opacity:1"
         d="m -331.63632,11.098809 57.41779,6.604534 -0.53454,115.727707 -125.88396,0.26727 2.67271,-126.1512185 61.98127,3.5517075 V 89.65856 h 4.34673 z"
         id="path1038"
         inkscape:connector-curvature="0" />
    </clipPath>
    <clipPath
       clipPathUnits="userSpaceOnUse"
       id="clipPath905-1">
      <g
         inkscape:label="Clip"
         id="use907-8">
        <circle
           r="9.1200657"
           cy="82.397766"
           cx="-333.78067"
           id="circle958-5"
           style="fill:#00ffff;stroke-width:0.32324284" />
      </g>
    </clipPath>
    <clipPath
       clipPathUnits="userSpaceOnUse"
       id="clipPath1055">
      <g
         inkscape:label="Clip"
         id="g1053">
        <circle
           r="9.1200657"
           cy="82.397766"
           cx="-333.78067"
           id="circle1051"
           style="fill:#00ffff;stroke-width:0.32324284" />
      </g>
    </clipPath>
    <clipPath
       clipPathUnits="userSpaceOnUse"
       id="clipPath4906">
      <g
         style="fill:#000000"
         transform="matrix(0.10850266,0,0,0.10850266,-297.56458,73.45739)"
         inkscape:label="Clip"
         id="g4916">
        <g
           style="fill:#000000"
           inkscape:label="Clip"
           id="g4914">
          <g
             style="fill:#000000"
             clip-path="url(#clipPath905)"
             id="g4912">
            <g
               style="fill:#000000"
               id="g4910"
               inkscape:label="Clip">
              <circle
                 style="fill:#000000;stroke-width:0.32324284"
                 id="circle4908"
                 cx="-333.78067"
                 cy="82.397766"
                 r="9.1200657" />
            </g>
          </g>
        </g>
      </g>
    </clipPath>
    <clipPath
       clipPathUnits="userSpaceOnUse"
       id="clipPath4981">
      <path
         style="fill:#1a1a1a;stroke-width:0.26458332"
         d="m -333.77384,13.476012 a 72.949409,72.949409 0 0 0 -72.94956,72.949552 72.949409,72.949409 0 0 0 72.94956,72.949546 72.949409,72.949409 0 0 0 72.94904,-72.949546 72.949409,72.949409 0 0 0 -72.94904,-72.949552 z m 0,64.822917 a 8.1264935,8.1264935 0 0 1 8.12613,8.126635 8.1264935,8.1264935 0 0 1 -8.12613,8.126634 8.1264935,8.1264935 0 0 1 -8.12665,-8.126634 8.1264935,8.1264935 0 0 1 8.12665,-8.126635 z"
         id="path4983"
         inkscape:connector-curvature="0" />
    </clipPath>
    <clipPath
       clipPathUnits="userSpaceOnUse"
       id="clipPath4981-0">
      <path
         style="fill:#1a1a1a;stroke-width:0.26458332"
         d="m -333.77384,13.476012 a 72.949409,72.949409 0 0 0 -72.94956,72.949552 72.949409,72.949409 0 0 0 72.94956,72.949546 72.949409,72.949409 0 0 0 72.94904,-72.949546 72.949409,72.949409 0 0 0 -72.94904,-72.949552 z m 0,64.822917 a 8.1264935,8.1264935 0 0 1 8.12613,8.126635 8.1264935,8.1264935 0 0 1 -8.12613,8.126634 8.1264935,8.1264935 0 0 1 -8.12665,-8.126634 8.1264935,8.1264935 0 0 1 8.12665,-8.126635 z"
         id="path4983-0"
         inkscape:connector-curvature="0" />
    </clipPath>
    <clipPath
       clipPathUnits="userSpaceOnUse"
       id="clipPath4981-3">
      <path
         style="fill:#1a1a1a;stroke-width:0.26458332"
         d="m -333.77384,13.476012 a 72.949409,72.949409 0 0 0 -72.94956,72.949552 72.949409,72.949409 0 0 0 72.94956,72.949546 72.949409,72.949409 0 0 0 72.94904,-72.949546 72.949409,72.949409 0 0 0 -72.94904,-72.949552 z m 0,64.822917 a 8.1264935,8.1264935 0 0 1 8.12613,8.126635 8.1264935,8.1264935 0 0 1 -8.12613,8.126634 8.1264935,8.1264935 0 0 1 -8.12665,-8.126634 8.1264935,8.1264935 0 0 1 8.12665,-8.126635 z"
         id="path4983-3"
         inkscape:connector-curvature="0" />
    </clipPath>
    <clipPath
       clipPathUnits="userSpaceOnUse"
       id="clipPath4981-3-7">
      <path
         style="fill:#1a1a1a;stroke-width:0.26458332"
         d="m -333.77384,13.476012 a 72.949409,72.949409 0 0 0 -72.94956,72.949552 72.949409,72.949409 0 0 0 72.94956,72.949546 72.949409,72.949409 0 0 0 72.94904,-72.949546 72.949409,72.949409 0 0 0 -72.94904,-72.949552 z m 0,64.822917 a 8.1264935,8.1264935 0 0 1 8.12613,8.126635 8.1264935,8.1264935 0 0 1 -8.12613,8.126634 8.1264935,8.1264935 0 0 1 -8.12665,-8.126634 8.1264935,8.1264935 0 0 1 8.12665,-8.126635 z"
         id="path4983-3-1"
         inkscape:connector-curvature="0" />
    </clipPath>
    <clipPath
       clipPathUnits="userSpaceOnUse"
       id="clipPath4981-3-1">
      <path
         style="fill:#1a1a1a;stroke-width:0.26458332"
         d="m -333.77384,13.476012 a 72.949409,72.949409 0 0 0 -72.94956,72.949552 72.949409,72.949409 0 0 0 72.94956,72.949546 72.949409,72.949409 0 0 0 72.94904,-72.949546 72.949409,72.949409 0 0 0 -72.94904,-72.949552 z m 0,64.822917 a 8.1264935,8.1264935 0 0 1 8.12613,8.126635 8.1264935,8.1264935 0 0 1 -8.12613,8.126634 8.1264935,8.1264935 0 0 1 -8.12665,-8.126634 8.1264935,8.1264935 0 0 1 8.12665,-8.126635 z"
         id="path4983-3-8"
         inkscape:connector-curvature="0" />
    </clipPath>
    <clipPath
       clipPathUnits="userSpaceOnUse"
       id="clipPath4981-3-1-5">
      <path
         style="fill:#1a1a1a;stroke-width:0.26458332"
         d="m -333.77384,13.476012 a 72.949409,72.949409 0 0 0 -72.94956,72.949552 72.949409,72.949409 0 0 0 72.94956,72.949546 72.949409,72.949409 0 0 0 72.94904,-72.949546 72.949409,72.949409 0 0 0 -72.94904,-72.949552 z m 0,64.822917 a 8.1264935,8.1264935 0 0 1 8.12613,8.126635 8.1264935,8.1264935 0 0 1 -8.12613,8.126634 8.1264935,8.1264935 0 0 1 -8.12665,-8.126634 8.1264935,8.1264935 0 0 1 8.12665,-8.126635 z"
         id="path4983-3-8-1"
         inkscape:connector-curvature="0" />
    </clipPath>
    <clipPath
       clipPathUnits="userSpaceOnUse"
       id="clipPath4981-3-1-5-9">
      <path
         style="fill:#1a1a1a;stroke-width:0.26458332"
         d="m -333.77384,13.476012 a 72.949409,72.949409 0 0 0 -72.94956,72.949552 72.949409,72.949409 0 0 0 72.94956,72.949546 72.949409,72.949409 0 0 0 72.94904,-72.949546 72.949409,72.949409 0 0 0 -72.94904,-72.949552 z m 0,64.822917 a 8.1264935,8.1264935 0 0 1 8.12613,8.126635 8.1264935,8.1264935 0 0 1 -8.12613,8.126634 8.1264935,8.1264935 0 0 1 -8.12665,-8.126634 8.1264935,8.1264935 0 0 1 8.12665,-8.126635 z"
         id="path4983-3-8-1-0"
         inkscape:connector-curvature="0" />
    </clipPath>
    <clipPath
       clipPathUnits="userSpaceOnUse"
       id="clipPath4981-3-1-0">
      <path
         style="fill:#1a1a1a;stroke-width:0.26458332"
         d="m -333.77384,13.476012 a 72.949409,72.949409 0 0 0 -72.94956,72.949552 72.949409,72.949409 0 0 0 72.94956,72.949546 72.949409,72.949409 0 0 0 72.94904,-72.949546 72.949409,72.949409 0 0 0 -72.94904,-72.949552 z m 0,64.822917 a 8.1264935,8.1264935 0 0 1 8.12613,8.126635 8.1264935,8.1264935 0 0 1 -8.12613,8.126634 8.1264935,8.1264935 0 0 1 -8.12665,-8.126634 8.1264935,8.1264935 0 0 1 8.12665,-8.126635 z"
         id="path4983-3-8-8"
         inkscape:connector-curvature="0" />
    </clipPath>
    <clipPath
       clipPathUnits="userSpaceOnUse"
       id="clipPath4981-3-1-0-8">
      <path
         style="fill:#1a1a1a;stroke-width:0.26458332"
         d="m -333.77384,13.476012 a 72.949409,72.949409 0 0 0 -72.94956,72.949552 72.949409,72.949409 0 0 0 72.94956,72.949546 72.949409,72.949409 0 0 0 72.94904,-72.949546 72.949409,72.949409 0 0 0 -72.94904,-72.949552 z m 0,64.822917 a 8.1264935,8.1264935 0 0 1 8.12613,8.126635 8.1264935,8.1264935 0 0 1 -8.12613,8.126634 8.1264935,8.1264935 0 0 1 -8.12665,-8.126634 8.1264935,8.1264935 0 0 1 8.12665,-8.126635 z"
         id="path4983-3-8-8-9"
         inkscape:connector-curvature="0" />
    </clipPath>
    <clipPath
       clipPathUnits="userSpaceOnUse"
       id="clipPath4981-3-1-0-8-7">
      <path
         style="fill:#1a1a1a;stroke-width:0.26458332"
         d="m -333.77384,13.476012 a 72.949409,72.949409 0 0 0 -72.94956,72.949552 72.949409,72.949409 0 0 0 72.94956,72.949546 72.949409,72.949409 0 0 0 72.94904,-72.949546 72.949409,72.949409 0 0 0 -72.94904,-72.949552 z m 0,64.822917 a 8.1264935,8.1264935 0 0 1 8.12613,8.126635 8.1264935,8.1264935 0 0 1 -8.12613,8.126634 8.1264935,8.1264935 0 0 1 -8.12665,-8.126634 8.1264935,8.1264935 0 0 1 8.12665,-8.126635 z"
         id="path4983-3-8-8-9-7"
         inkscape:connector-curvature="0" />
    </clipPath>
    <clipPath
       clipPathUnits="userSpaceOnUse"
       id="clipPath4981-3-1-0-5">
      <path
         style="fill:#1a1a1a;stroke-width:0.26458332"
         d="m -333.77384,13.476012 a 72.949409,72.949409 0 0 0 -72.94956,72.949552 72.949409,72.949409 0 0 0 72.94956,72.949546 72.949409,72.949409 0 0 0 72.94904,-72.949546 72.949409,72.949409 0 0 0 -72.94904,-72.949552 z m 0,64.822917 a 8.1264935,8.1264935 0 0 1 8.12613,8.126635 8.1264935,8.1264935 0 0 1 -8.12613,8.126634 8.1264935,8.1264935 0 0 1 -8.12665,-8.126634 8.1264935,8.1264935 0 0 1 8.12665,-8.126635 z"
         id="path4983-3-8-8-2"
         inkscape:connector-curvature="0" />
    </clipPath>
  </defs>
  <sodipodi:namedview
     id="base"
     pagecolor="#ffffff"
     bordercolor="#666666"
     borderopacity="1.0"
     inkscape:pageopacity="0.0"
     inkscape:pageshadow="2"
     inkscape:zoom="0.98994949"
     inkscape:cx="487.35823"
     inkscape:cy="127.87208"
     inkscape:document-units="mm"
     inkscape:current-layer="g5381"
     showgrid="false"
     inkscape:window-width="1920"
     inkscape:window-height="1001"
     inkscape:window-x="-9"
     inkscape:window-y="-9"
     inkscape:window-maximized="1">
    <sodipodi:guide
       position="-395.41628,223.52589"
       orientation="239.37276,-239.37276"
       id="guide5214"
       inkscape:locked="false" />
    <sodipodi:guide
       position="-458.75033,160.19184"
       orientation="40.512181,40.512181"
       id="guide5216"
       inkscape:locked="false" />
    <sodipodi:guide
       position="-336.90467,243.73166"
       orientation="-101.54803,137.27562"
       id="guide5218"
       inkscape:locked="false" />
    <sodipodi:guide
       position="-411.71063,176.34091"
       orientation="-178.33691,61.584959"
       id="guide5220"
       inkscape:locked="false" />
    <sodipodi:guide
       position="-395.41628,223.52589"
       orientation="239.37278,-239.37278"
       id="guide5222"
       inkscape:locked="false" />
    <sodipodi:guide
       position="-458.75034,160.19184"
       orientation="-40.512181,-40.512181"
       id="guide5224"
       inkscape:locked="false" />
    <sodipodi:guide
       position="-469.46919,170.91069"
       orientation="-137.27563,101.54804"
       id="guide5226"
       inkscape:locked="false" />
    <sodipodi:guide
       position="-442.60127,207.23153"
       orientation="-61.584963,178.33692"
       id="guide5228"
       inkscape:locked="false" />
    <sodipodi:guide
       position="-665.822,223.52603"
       orientation="239.37276,239.37276"
       inkscape:locked="false"
       id="guide5230" />
    <sodipodi:guide
       position="-602.48795,160.19199"
       orientation="40.51218,-40.51218"
       inkscape:locked="false"
       id="guide5232" />
    <sodipodi:guide
       position="-613.2068,149.47314"
       orientation="-101.54803,-137.27562"
       inkscape:locked="false"
       id="guide5234" />
    <sodipodi:guide
       position="-649.52764,176.34106"
       orientation="-178.33691,-61.58496"
       inkscape:locked="false"
       id="guide5236" />
    <sodipodi:guide
       position="-665.822,223.52603"
       orientation="239.37278,239.37278"
       inkscape:locked="false"
       id="guide5238" />
    <sodipodi:guide
       position="-602.48795,160.19198"
       orientation="-40.51218,40.51218"
       inkscape:locked="false"
       id="guide5240" />
    <sodipodi:guide
       position="-591.7691,170.91083"
       orientation="-137.27563,-101.54804"
       inkscape:locked="false"
       id="guide5242" />
  </sodipodi:namedview>
  <metadata
     id="metadata5">
    <rdf:RDF>
      <cc:Work
         rdf:about="">
        <dc:format>image/svg+xml</dc:format>
        <dc:type
           rdf:resource="http://purl.org/dc/dcmitype/StillImage" />
        <dc:title />
      </cc:Work>
    </rdf:RDF>
  </metadata>
  <g
     inkscape:groupmode="layer"
     id="layer3"
     inkscape:label="Layer 3"
     transform="translate(-60.961435,-42.272326)" />
  <g
     inkscape:label="Layer 1"
     inkscape:groupmode="layer"
     id="layer1"
     transform="translate(-60.961435,-42.272326)">
    <g
       id="g5381"
       transform="matrix(0.25787482,0,0,0.25787482,61.320657,85.604763)">
      <path
         id="path10-6-2"
         d="m 261.11701,-64.680187 c -3.34264,0.02249 -7.34481,1.169385 -11.89024,3.278352 l 18.51826,18.518248 c 3.96981,-8.556117 4.53086,-15.1873 0.59994,-19.118212 -1.84261,-1.842614 -4.2786,-2.698221 -7.22796,-2.678388 z m -16.0967,5.413105 c -15.05974,8.273651 -35.02255,25.357807 -56.46528,46.478297 9.82369,9.9906501 19.82052,20.5632301 29.76509,31.40429 21.4979,-21.7575799 38.90923,-42.03912 47.28962,-57.29315 z M 153.23884,24.017755 C 97.693139,84.712465 44.386107,154.85273 47.938271,158.40492 51.506389,161.97301 122.26237,108.17122 183.14242,52.357625 172.83343,42.887995 162.7776,33.378215 153.23884,24.017755 Z"
         style="fill:#000000;stroke:none;stroke-width:0.29589072px;stroke-linecap:butt;stroke-linejoin:miter;stroke-opacity:1"
         inkscape:connector-curvature="0" />
      <path
         inkscape:connector-curvature="0"
         id="path10-6-9-3"
         d="m 103.2719,-62.002027 c 3.93091,-3.930912 10.562,-3.369833 19.11812,0.599988 l -18.51814,18.518135 c -3.969832,-8.55612 -4.530903,-15.187211 -0.59998,-19.118123 z m 23.32446,2.734877 C 187.68471,-25.705875 329.39876,152.6846 323.6787,158.4046 317.95868,164.12463 139.56808,22.410795 106.00676,-38.677565 Z"
         style="fill:#000000;stroke:#000000;stroke-width:0.296;stroke-linecap:butt;stroke-linejoin:miter;stroke-miterlimit:4;stroke-dasharray:none;stroke-opacity:1" />
      <g
         transform="rotate(45,-7.5437465,563.80714)"
         id="g5146-7-7">
        <g
           id="g31-8-89-4-72"
           clip-path="url(#clipPath4981-3-1-0-5)"
           style="fill:#000000"
           transform="matrix(0.77489123,0,0,0.82503098,3.6634939,-159.389)">
          <path
             sodipodi:nodetypes="cccccccccc"
             inkscape:connector-curvature="0"
             id="path12-6-5-9-47"
             transform="matrix(0.34144577,0,0,0.32069503,240.90254,275.11739)"
             d="m -1676.25,-801.8457 v 212.15625 h -13.6367 V -801.8457 l -75.7383,155.63867 25.2637,168.87305 h 57.2929 57.293 l 25.2637,-168.87305 z"
             style="fill:#000000;stroke:#000000;stroke-width:0.61693966px;stroke-linecap:butt;stroke-linejoin:miter;stroke-opacity:1" />
        </g>
      </g>
      <g
         transform="matrix(-0.70710679,0.70710679,0.70710679,0.70710679,-24.845827,170.4696)"
         id="g5146-7-9-8">
        <g
           id="g31-8-89-4-7-7"
           clip-path="url(#clipPath4981-3-1-0-8-7)"
           style="fill:#000000"
           transform="matrix(0.77489123,0,0,0.82503098,3.6634939,-159.389)">
          <path
             sodipodi:nodetypes="cccccccccc"
             inkscape:connector-curvature="0"
             id="path12-6-5-9-4-6"
             transform="matrix(0.34144577,0,0,0.32069503,240.90254,275.11739)"
             d="m -1676.25,-801.8457 v 212.15625 h -13.6367 V -801.8457 l -75.7383,155.63867 25.2637,168.87305 h 57.2929 57.293 l 25.2637,-168.87305 z"
             style="fill:#000000;stroke:#000000;stroke-width:0.61693966px;stroke-linecap:butt;stroke-linejoin:miter;stroke-opacity:1" />
        </g>
      </g>
      <rect
         ry="11.081656"
         rx="11.03294"
         y="-146.5975"
         x="20.0462"
         height="333.41254"
         width="331.94678"
         id="rect4996-3"
         style="fill:none;stroke:#000000;stroke-width:42.87841415;stroke-miterlimit:4;stroke-dasharray:none;stroke-opacity:1" />
    </g>
  </g>
  <g
     inkscape:groupmode="layer"
     id="layer2"
     inkscape:label="Layer 2"
     transform="translate(-60.961435,-42.272326)" />
</svg>
