<?xml version="1.0" standalone="no"?>
<!DOCTYPE svg PUBLIC "-//W3C//DTD SVG 20010904//EN"
 "http://www.w3.org/TR/2001/REC-SVG-20010904/DTD/svg10.dtd">
<svg version="1.0" xmlns="http://www.w3.org/2000/svg"
 width="688.000000pt" height="688.000000pt" viewBox="0 0 688.000000 688.000000"
 preserveAspectRatio="xMidYMid meet">
<metadata>
Created by potrace 1.11, written by Peter Selinger 2001-2013
</metadata>
<g transform="translate(0.000000,688.000000) scale(0.100000,-0.100000)"
fill="#000000" stroke="none">
<path d="M505 6870 c-91 -18 -176 -56 -242 -106 -52 -40 -143 -136 -143 -151
0 -7 -3 -13 -8 -13 -11 0 -53 -98 -73 -170 -17 -62 -18 -222 -16 -3010 l2
-2945 23 -62 c58 -160 164 -282 306 -352 132 -65 -103 -61 3116 -58 l2925 2
62 23 c132 49 216 110 290 207 54 72 77 117 103 210 20 68 20 108 20 2995 l0
2925 -21 75 c-20 70 -74 181 -91 188 -4 2 -8 8 -8 14 0 5 -29 37 -64 71 -73
70 -157 117 -261 147 -68 20 -102 20 -2975 19 -1598 -1 -2923 -5 -2945 -9z
m5576 -779 c11 -2 6 -5300 -5 -5304 -6 -2 -1194 -3 -2641 -3 l-2630 1 -1 2650
c0 1458 0 2652 2 2655 2 4 5256 5 5275 1z"/>
<path d="M1050 5873 c0 -2 143 -147 318 -322 301 -300 319 -316 347 -311 106
21 188 -97 130 -186 -36 -55 -127 -57 -179 -5 -27 28 -31 38 -31 88 l0 56
-313 314 c-173 173 -316 312 -319 309 -3 -2 7 -38 22 -78 15 -40 30 -84 35
-98 4 -14 11 -34 16 -45 4 -11 8 -24 10 -30 1 -5 35 -102 74 -215 39 -113 78
-225 86 -250 20 -65 -10 -38 304 -269 69 -50 134 -98 145 -107 11 -8 69 -51
129 -96 l108 -81 196 196 196 196 -26 38 c-24 36 -157 217 -175 238 -5 6 -19
26 -33 45 -13 19 -27 37 -30 40 -3 3 -21 28 -39 55 -19 28 -38 52 -41 55 -3 3
-27 34 -52 70 -69 97 -110 139 -140 144 -14 2 -36 10 -48 16 -12 6 -29 13 -38
15 -19 4 -166 53 -197 66 -11 4 -40 15 -65 23 -25 8 -123 42 -217 74 -95 33
-173 58 -173 55z"/>
<path d="M5760 5854 c-36 -13 -66 -24 -67 -25 -2 -1 -7 -3 -13 -4 -5 -1 -11
-3 -12 -5 -2 -1 -10 -3 -18 -5 -22 -5 -83 -27 -101 -36 -9 -4 -36 -13 -59 -19
-23 -6 -54 -16 -69 -22 -24 -10 -364 -128 -368 -128 -1 0 -22 -28 -48 -62 -26
-35 -55 -74 -65 -88 -22 -29 -94 -126 -114 -155 -61 -84 -219 -296 -240 -321
-14 -18 -26 -35 -26 -38 0 -4 88 -95 195 -202 l195 -196 93 68 c143 106 191
142 207 156 9 7 36 26 60 43 25 16 54 37 65 47 11 9 69 53 129 97 77 56 114
91 123 113 8 18 14 33 13 33 -1 0 7 27 17 53 3 9 7 22 9 27 3 13 104 305 111
325 4 8 7 17 8 20 1 3 4 12 7 20 4 8 8 24 11 35 3 11 23 71 45 133 22 61 39
112 37 112 -1 0 -147 -144 -323 -321 -314 -314 -320 -321 -315 -354 7 -46 -2
-76 -33 -110 -24 -26 -34 -29 -85 -30 -52 0 -60 3 -83 30 -29 34 -35 92 -13
135 20 39 81 68 126 60 l39 -7 318 318 c175 175 316 320 313 322 -2 2 -33 -7
-69 -19z"/>
<path d="M2168 4703 l-187 -188 16 -30 c9 -16 20 -33 25 -36 5 -3 9 -9 9 -13
-2 -12 137 -212 210 -301 175 -214 288 -340 454 -513 196 -205 509 -511 690
-677 54 -49 107 -99 119 -111 12 -11 59 -54 105 -95 46 -41 96 -85 110 -99 14
-14 55 -50 90 -80 35 -30 73 -64 85 -75 12 -11 46 -40 75 -65 29 -25 63 -54
75 -65 12 -11 48 -42 81 -70 32 -27 63 -55 69 -60 6 -6 36 -30 66 -55 30 -24
62 -51 71 -60 8 -8 35 -31 59 -50 24 -19 53 -44 64 -55 12 -11 39 -34 61 -50
22 -17 42 -32 45 -35 8 -9 268 -221 350 -285 41 -33 80 -64 86 -70 7 -5 24
-19 40 -30 15 -11 41 -31 58 -45 49 -40 53 -43 214 -165 84 -63 157 -115 162
-115 4 0 10 -3 12 -7 5 -13 116 -93 128 -93 5 0 10 -4 10 -8 0 -5 12 -15 28
-23 15 -8 33 -19 40 -26 24 -23 187 -119 229 -135 25 -10 45 -12 49 -7 10 16
-45 120 -133 254 -48 71 -90 132 -95 133 -4 2 -8 10 -8 18 0 8 -4 14 -8 14 -4
0 -15 12 -24 28 -9 15 -24 36 -32 47 -9 11 -39 52 -68 90 -28 39 -55 72 -60
73 -4 2 -8 10 -8 17 0 7 -3 15 -7 17 -5 2 -28 30 -53 63 -25 33 -47 62 -50 65
-3 3 -27 34 -55 70 -27 36 -54 70 -60 77 -11 14 -9 12 -85 108 -30 39 -57 72
-60 75 -3 3 -17 21 -32 40 -15 19 -37 47 -50 62 -13 14 -34 41 -48 58 -14 18
-29 37 -35 44 -5 6 -26 31 -46 56 -20 25 -47 56 -58 70 -36 41 -53 61 -121
145 -36 44 -70 85 -76 90 -5 6 -35 39 -65 75 -30 35 -61 72 -69 80 -8 9 -26
30 -40 46 -29 34 -150 173 -165 190 -5 6 -35 39 -65 74 -30 35 -62 70 -71 79
-8 9 -55 61 -104 116 -49 55 -99 109 -110 121 -11 12 -67 72 -125 134 -196
212 -470 489 -649 658 -169 159 -178 168 -253 233 -33 30 -66 59 -72 64 -10 9
-95 80 -136 112 -152 122 -384 283 -409 283 -3 0 -90 -84 -193 -187z"/>
<path d="M4490 4873 c-14 -9 -63 -41 -110 -72 -47 -30 -91 -61 -98 -68 -7 -7
-17 -13 -20 -13 -4 0 -18 -10 -32 -22 -14 -13 -43 -36 -65 -53 -64 -48 -227
-185 -321 -271 -128 -117 -150 -137 -256 -240 l-96 -93 85 -88 c92 -95 305
-319 400 -421 l58 -63 72 73 c126 129 176 182 253 269 41 46 80 89 85 95 6 6
33 37 60 69 28 32 56 64 63 71 6 7 12 16 12 20 0 3 8 14 18 23 10 9 60 72 110
141 51 69 96 130 100 135 5 6 27 41 50 80 l41 70 -187 187 c-102 104 -189 188
-192 187 -3 0 -16 -7 -30 -16z"/>
<path d="M2823 3344 c-13 -14 -23 -30 -23 -35 0 -5 -6 -9 -12 -9 -7 0 -22 -13
-33 -29 -21 -30 -67 -82 -239 -271 -23 -25 -66 -74 -96 -110 -30 -36 -59 -70
-65 -76 -5 -6 -28 -32 -50 -58 -22 -27 -49 -58 -60 -70 -11 -13 -38 -44 -60
-71 -22 -26 -47 -55 -56 -64 -8 -9 -33 -38 -55 -66 -21 -27 -46 -58 -54 -68
-8 -11 -20 -24 -26 -31 -18 -19 -286 -347 -324 -396 -19 -25 -42 -54 -52 -65
-24 -29 -121 -153 -213 -275 -44 -58 -85 -112 -92 -120 -67 -82 -313 -435
-313 -450 0 -4 -3 -10 -7 -12 -12 -5 -73 -124 -73 -142 0 -44 105 12 400 215
19 13 79 58 134 99 54 41 108 82 120 90 32 23 100 73 116 87 8 7 107 85 220
173 113 89 214 169 225 179 11 9 83 68 160 131 77 63 145 119 151 125 6 5 30
26 54 45 24 19 48 40 54 45 6 6 38 33 71 60 33 28 65 55 70 61 6 5 39 35 75
64 36 30 72 61 81 70 9 8 43 38 75 65 32 28 83 73 114 100 31 28 89 79 129
115 40 36 90 81 111 100 21 19 54 50 75 68 l36 34 -43 40 c-90 83 -263 246
-333 313 -40 39 -94 91 -121 117 l-49 47 -22 -25z"/>
</g>
</svg>
